<svg width="16" height="9" viewBox="0 0 16 9" fill="none" xmlns="http://www.w3.org/2000/svg">
<g id="material-symbols:arrow-back-ios-rounded" clip-path="url(#clip0_523_718)">
<path id="Vector" d="M14.825 2.15624L8.52499 8.47499C8.44999 8.54999 8.36874 8.60299 8.28124 8.63399C8.19374 8.66549 8.09999 8.68124 7.99999 8.68124C7.89999 8.68124 7.80624 8.66549 7.71874 8.63399C7.63124 8.60299 7.54999 8.54999 7.47499 8.47499L1.15624 2.15624C0.981237 1.98124 0.893737 1.76249 0.893737 1.49999C0.893737 1.23749 0.987487 1.01249 1.17499 0.824994C1.36249 0.637494 1.58124 0.543744 1.83124 0.543744C2.08124 0.543744 2.29999 0.637494 2.48749 0.824994L7.99999 6.33749L13.5125 0.824994C13.6875 0.649994 13.903 0.562493 14.159 0.562493C14.4155 0.562493 14.6375 0.656243 14.825 0.843743C15.0125 1.03124 15.1062 1.24999 15.1062 1.49999C15.1062 1.74999 15.0125 1.96874 14.825 2.15624Z" fill="white"/>
</g>
<defs>
<clipPath id="clip0_523_718">
<rect width="9" height="16" fill="white" transform="translate(0 9) rotate(-90)"/>
</clipPath>
</defs>
</svg>
