<svg width="24" height="24" viewBox="0 0 24 24" fill="none" xmlns="http://www.w3.org/2000/svg">
<g clip-path="url(#clip0_595_179)">
<path d="M15.6 12C15.6 12.9548 15.2207 13.8704 14.5456 14.5456C13.8704 15.2207 12.9548 15.6 12 15.6C11.0452 15.6 10.1295 15.2207 9.4544 14.5456C8.77927 13.8704 8.39998 12.9548 8.39998 12C8.39998 11.7948 8.42158 11.5944 8.45878 11.4H7.19998V16.1964C7.19998 16.53 7.46998 16.8 7.80358 16.8H16.1976C16.3575 16.7997 16.5107 16.7359 16.6236 16.6228C16.7366 16.5096 16.8 16.3563 16.8 16.1964V11.4H15.5412C15.5784 11.5944 15.6 11.7948 15.6 12ZM12 14.4C12.3152 14.3999 12.6274 14.3377 12.9186 14.217C13.2098 14.0963 13.4744 13.9194 13.6973 13.6964C13.9201 13.4735 14.0969 13.2088 14.2175 12.9175C14.338 12.6262 14.4001 12.314 14.4 11.9988C14.3999 11.6835 14.3377 11.3714 14.217 11.0802C14.0963 10.7889 13.9194 10.5243 13.6964 10.3015C13.4735 10.0786 13.2088 9.90185 12.9175 9.78129C12.6262 9.66072 12.314 9.5987 11.9988 9.59878C11.3621 9.59894 10.7516 9.85201 10.3015 10.3023C9.85139 10.7526 9.59862 11.3633 9.59878 12C9.59894 12.6367 9.85201 13.2472 10.3023 13.6973C10.7526 14.1474 11.3633 14.4001 12 14.4ZM14.88 9.47998H16.3188C16.4144 9.47998 16.5061 9.44209 16.5738 9.37461C16.6415 9.30713 16.6797 9.21557 16.68 9.11998V7.68118C16.68 7.58538 16.6419 7.49351 16.5742 7.42577C16.5065 7.35804 16.4146 7.31998 16.3188 7.31998H14.88C14.7842 7.31998 14.6923 7.35804 14.6246 7.42577C14.5568 7.49351 14.5188 7.58538 14.5188 7.68118V9.11998C14.52 9.31798 14.682 9.47998 14.88 9.47998ZM12 0.47998C8.94469 0.47998 6.01453 1.69369 3.85411 3.85411C1.69369 6.01453 0.47998 8.94469 0.47998 12C0.47998 15.0553 1.69369 17.9854 3.85411 20.1459C6.01453 22.3063 8.94469 23.52 12 23.52C13.5128 23.52 15.0108 23.222 16.4085 22.6431C17.8062 22.0641 19.0761 21.2156 20.1459 20.1459C21.2156 19.0761 22.0641 17.8062 22.6431 16.4085C23.222 15.0108 23.52 13.5128 23.52 12C23.52 10.4872 23.222 8.98914 22.6431 7.59147C22.0641 6.1938 21.2156 4.92384 20.1459 3.85411C19.0761 2.78438 17.8062 1.93582 16.4085 1.35689C15.0108 0.777954 13.5128 0.47998 12 0.47998ZM18 16.6668C18 17.4 17.4 18 16.6668 18H7.33318C6.59998 18 5.99998 17.4 5.99998 16.6668V7.33318C5.99998 6.59998 6.59998 5.99998 7.33318 5.99998H16.6668C17.4 5.99998 18 6.59998 18 7.33318V16.6668Z" fill="white"/>
</g>
<defs>
<clipPath id="clip0_595_179">
<rect width="24" height="24" fill="white"/>
</clipPath>
</defs>
</svg>
